<?xml version="1.0" standalone="no"?>
<!DOCTYPE svg PUBLIC "-//W3C//DTD SVG 20010904//EN"
 "http://www.w3.org/TR/2001/REC-SVG-20010904/DTD/svg10.dtd">
<svg version="1.0" xmlns="http://www.w3.org/2000/svg"
 width="400.000000pt" height="400.000000pt" viewBox="0 0 400.000000 400.000000"
 preserveAspectRatio="xMidYMid meet">

<g transform="translate(0.000000,450.000000) scale(0.100000,-0.100000)"
fill="#000000" stroke="none">
<path d="M1845 3990 c-392 -38 -734 -167 -1038 -393 -100 -74 -277 -245 -360
-347 -389 -481 -532 -1129 -382 -1730 65 -262 187 -516 353 -735 62 -82 241
-264 332 -338 278 -225 627 -375 980 -421 190 -24 272 -28 402 -16 527 48 938
238 1289 597 356 364 539 785 574 1323 9 141 -17 382 -62 560 -65 262 -206
545 -380 760 -72 89 -254 267 -338 331 -216 165 -468 287 -734 353 -191 49
-464 72 -636 56z m1224 -1170 c41 -6 109 -19 153 -31 l78 -21 0 -184 c0 -101
-2 -184 -5 -184 -3 0 -31 13 -63 29 -116 58 -194 76 -342 76 -128 0 -138 -1
-192 -28 -86 -42 -119 -101 -98 -177 14 -53 82 -111 195 -165 49 -23 146 -70
215 -103 191 -92 287 -182 342 -321 30 -76 32 -258 4 -341 -61 -178 -200 -287
-427 -336 -64 -14 -125 -19 -254 -18 -189 0 -293 15 -423 63 l-77 28 -3 203
-2 203 22 -17 c115 -82 241 -136 359 -155 206 -34 378 24 396 132 19 118 -57
189 -332 308 -11 4 -46 19 -77 33 -132 57 -261 163 -311 255 -77 141 -76 350
3 485 36 61 61 90 117 134 77 60 234 120 358 135 63 8 293 6 364 -3z m-1041
-192 l-3 -163 -247 -3 -248 -2 0 -710 0 -710 -205 0 -205 0 0 710 0 710 -250
0 -250 0 0 165 0 165 705 0 705 0 -2 -162z"/>
</g>
</svg>
