<?xml version="1.0" standalone="no"?>
<!DOCTYPE svg PUBLIC "-//W3C//DTD SVG 20010904//EN"
 "http://www.w3.org/TR/2001/REC-SVG-20010904/DTD/svg10.dtd">
<svg version="1.0" xmlns="http://www.w3.org/2000/svg"
 width="300.000000pt" height="300.000000pt" viewBox="0 0 300.000000 300.000000"
 preserveAspectRatio="xMidYMid meet">
<metadata>
Created by potrace 1.16, written by Peter Selinger 2001-2019
</metadata>
<g transform="translate(0.000000,300.000000) scale(0.100000,-0.100000)"
fill="#000000" stroke="none">
<path d="M0 1500 l0 -1500 1500 0 1500 0 0 1500 0 1500 -1500 0 -1500 0 0
-1500z m1235 1001 c73 -35 122 -71 208 -151 l66 -61 63 53 c132 112 236 167
315 168 33 0 50 -7 75 -29 32 -29 33 -31 32 -113 0 -67 -7 -101 -33 -176 -18
-52 -31 -95 -29 -96 2 -2 26 -9 53 -15 74 -18 206 -84 238 -118 18 -19 31 -46
34 -71 5 -35 1 -44 -33 -82 -44 -49 -138 -97 -246 -125 -38 -10 -68 -21 -68
-24 0 -3 12 -42 26 -86 33 -103 42 -226 21 -278 -19 -45 -68 -70 -119 -61 -61
12 -165 75 -260 158 l-94 83 -45 -39 c-130 -115 -249 -180 -331 -181 -45 -1
-54 3 -81 33 -29 33 -30 34 -24 124 3 67 13 112 35 173 l30 82 -71 21 c-93 28
-201 85 -232 122 -18 22 -25 41 -25 73 0 37 6 50 35 80 52 51 134 89 271 125
l42 10 -24 74 c-54 170 -55 277 -4 328 39 38 94 38 175 -1z m-450 -1436 c66
-27 105 -104 91 -180 -8 -39 -56 -100 -87 -110 -17 -6 -17 -8 10 -30 33 -29
43 -51 71 -162 11 -45 23 -89 26 -97 5 -13 -2 -16 -35 -16 l-40 0 -16 55 c-8
30 -22 79 -30 108 -20 74 -48 97 -124 104 l-60 6 -3 -134 -3 -134 -38 -3 -37
-3 2 303 3 303 55 6 c71 8 176 1 215 -16z m1595 -95 l0 -60 60 0 60 0 0 -30 0
-30 -60 0 -60 0 0 -124 c0 -171 17 -209 86 -192 24 6 25 4 22 -26 -3 -33 -4
-33 -59 -36 -105 -6 -129 42 -129 258 l0 120 -30 0 c-27 0 -30 3 -30 30 0 27
3 30 29 30 29 0 30 2 33 52 3 46 6 53 28 59 49 14 50 12 50 -51z m-1136 -70
c51 -25 83 -71 96 -138 16 -84 19 -82 -151 -82 -143 0 -149 -1 -149 -20 0 -39
29 -90 62 -110 37 -22 127 -27 174 -10 31 12 29 13 38 -22 6 -25 3 -28 -31
-37 -89 -25 -207 -8 -256 37 -80 72 -85 244 -10 333 55 65 151 86 227 49z
m424 0 c69 -31 81 -70 83 -265 l1 -160 -33 0 c-29 0 -34 4 -39 29 -5 27 -6 28
-19 12 -50 -60 -170 -65 -222 -10 -32 34 -37 118 -11 160 27 42 99 75 178 82
55 4 64 8 64 24 0 27 -26 74 -45 82 -29 11 -95 6 -131 -9 -34 -14 -35 -14 -44
11 -6 14 -10 27 -10 29 0 10 99 34 140 34 25 0 64 -8 88 -19z m476 9 c41 -10
43 -13 37 -37 -7 -26 -9 -27 -78 -24 -120 6 -173 -42 -173 -155 0 -127 87
-184 230 -151 11 2 15 -5 15 -27 0 -35 -20 -43 -110 -44 -134 -2 -218 84 -217
221 1 156 138 257 296 217z"/>
<path d="M1081 2481 c-41 -41 -37 -152 12 -297 27 -79 12 -75 185 -56 l93 10
54 58 c30 33 54 64 55 70 0 12 -103 106 -170 156 -97 73 -191 97 -229 59z"/>
<path d="M1785 2451 c-59 -28 -141 -85 -219 -154 l-40 -34 54 -62 c29 -34 63
-63 74 -65 12 -2 65 -9 118 -15 54 -6 103 -12 110 -13 14 -3 51 84 74 174 19
73 14 150 -11 178 -26 29 -88 26 -160 -9z"/>
<path d="M1355 2068 c-20 -24 -57 -73 -82 -110 l-46 -67 38 -63 c21 -35 56
-87 77 -115 l39 -53 114 0 115 0 41 53 c23 28 59 78 80 109 l39 57 -77 115
-77 116 -112 0 -112 0 -37 -42z m213 -88 c36 -22 52 -54 52 -107 0 -27 -8 -43
-34 -69 -29 -29 -41 -34 -81 -34 -40 0 -52 5 -81 34 -36 36 -44 78 -24 130 12
33 66 66 105 66 17 0 45 -9 63 -20z"/>
<path d="M1197 2090 c-27 -5 -52 -11 -55 -14 -7 -7 59 -146 69 -146 3 0 19 19
34 43 15 23 43 61 62 85 l34 42 -48 -1 c-26 -1 -70 -5 -96 -9z"/>
<path d="M1721 2009 c34 -52 63 -95 65 -97 2 -4 81 128 90 151 6 16 -20 22
-144 33 l-73 7 62 -94z"/>
<path d="M1015 2051 c-86 -24 -165 -63 -208 -101 -71 -62 -41 -129 86 -189 56
-27 185 -66 192 -59 1 2 15 28 30 58 15 30 38 71 51 92 l24 37 -43 90 c-26 55
-48 90 -57 90 -8 0 -42 -8 -75 -18z"/>
<path d="M1860 1973 l-52 -97 41 -85 c23 -47 48 -87 57 -89 24 -6 153 37 217
71 63 33 107 77 107 108 0 51 -75 110 -195 152 -130 45 -116 50 -175 -60z"/>
<path d="M1161 1779 c-24 -44 -41 -83 -37 -86 6 -6 199 -32 205 -28 3 3 -100
165 -119 188 -3 4 -25 -29 -49 -74z"/>
<path d="M1720 1754 c-34 -47 -60 -87 -58 -89 2 -2 35 0 73 5 39 5 77 10 85
10 41 1 42 16 6 89 -20 39 -38 71 -40 71 -2 0 -32 -39 -66 -86z"/>
<path d="M1092 1644 c-29 -57 -55 -158 -60 -229 -4 -70 -2 -83 16 -105 36 -45
125 -26 244 54 58 38 161 123 166 137 2 5 -18 35 -44 66 -27 32 -49 59 -49 60
0 0 -43 6 -95 12 -52 7 -111 14 -132 18 -29 4 -38 1 -46 -13z"/>
<path d="M1839 1656 c-2 -3 -52 -10 -111 -17 l-107 -12 -55 -62 -55 -63 75
-71 c170 -162 307 -210 345 -120 28 70 -28 349 -71 349 -9 0 -19 -2 -21 -4z"/>
<path d="M590 910 l0 -110 60 0 c99 0 150 39 150 115 -1 73 -44 105 -144 105
l-66 0 0 -110z"/>
<path d="M1096 839 c-26 -20 -56 -68 -56 -89 0 -6 42 -10 116 -10 102 0 115 2
110 16 -3 9 -6 22 -6 31 0 8 -13 28 -29 44 -37 36 -94 40 -135 8z"/>
<path d="M1590 691 c-71 -14 -100 -43 -100 -99 0 -53 57 -82 113 -58 49 20 67
51 67 113 0 59 -2 59 -80 44z"/>
</g>
</svg>
