<?xml version="1.0" standalone="no"?>
<!DOCTYPE svg PUBLIC "-//W3C//DTD SVG 20010904//EN"
 "http://www.w3.org/TR/2001/REC-SVG-20010904/DTD/svg10.dtd">
<svg version="1.0" xmlns="http://www.w3.org/2000/svg"
 width="474.000000pt" height="474.000000pt" viewBox="0 0 474.000000 474.000000"
 preserveAspectRatio="xMidYMid meet">
<metadata>
Created by potrace 1.16, written by Peter Selinger 2001-2019
</metadata>
<g transform="translate(0.000000,474.000000) scale(0.100000,-0.100000)"
fill="#000000" stroke="none">
<path d="M1030 991 l0 -361 50 0 50 0 0 149 0 149 67 4 c81 4 130 -11 161 -49
12 -15 48 -79 79 -140 l57 -113 49 0 c27 0 47 4 45 9 -26 70 -132 255 -165
288 l-42 43 28 15 c63 32 98 111 86 196 -9 63 -40 108 -95 139 -42 23 -56 25
-207 28 l-163 4 0 -361z m331 243 c61 -61 44 -169 -31 -206 -25 -13 -59 -18
-117 -18 l-83 0 0 131 0 131 100 -4 c96 -3 101 -4 131 -34z"/>
<path d="M3441 1248 l2 -73 -31 -3 c-29 -3 -32 -6 -32 -37 0 -30 3 -34 30 -37
l29 -3 4 -180 c3 -194 10 -222 59 -258 20 -15 48 -21 122 -25 l96 -5 0 37 0
36 -75 0 c-115 0 -115 1 -115 222 l0 177 93 3 92 3 3 33 3 32 -95 0 -96 0 0
75 0 75 -46 0 -45 0 2 -72z"/>
<path d="M1808 1166 c-53 -19 -82 -40 -113 -80 -78 -102 -72 -294 11 -386 68
-76 210 -101 348 -62 59 17 60 18 61 55 1 20 -1 37 -4 37 -3 0 -30 -9 -59 -20
-75 -29 -175 -27 -232 3 -48 25 -89 90 -90 139 l0 28 203 2 202 3 -2 50 c-4
85 -23 136 -69 181 -24 25 -58 47 -80 53 -52 15 -131 13 -176 -3z m161 -74
c47 -23 73 -62 75 -109 l1 -38 -153 -3 c-173 -3 -178 -1 -146 70 38 85 141
122 223 80z"/>
<path d="M2365 1167 c-67 -17 -75 -23 -75 -56 0 -38 5 -40 53 -24 61 21 136
27 184 14 49 -13 93 -60 93 -100 l0 -28 -108 -5 c-162 -8 -228 -44 -253 -138
-16 -61 2 -124 46 -166 70 -65 212 -59 288 13 l27 27 0 -37 0 -37 46 0 46 0
-4 198 c-3 189 -4 200 -29 247 -35 70 -87 98 -188 101 -42 2 -99 -2 -126 -9z
m255 -301 c0 -105 -68 -176 -170 -176 -44 0 -56 5 -81 29 -22 22 -29 39 -29
68 0 82 50 112 188 113 l92 0 0 -34z"/>
<path d="M3013 1159 c-97 -37 -153 -132 -153 -259 0 -92 25 -158 79 -211 58
-56 113 -73 214 -67 96 6 131 23 135 66 4 37 0 38 -58 17 -54 -19 -143 -19
-179 0 -64 32 -101 105 -101 195 0 156 103 238 250 198 30 -8 62 -17 70 -19
11 -3 16 6 18 33 3 37 3 37 -49 52 -71 22 -162 19 -226 -5z"/>
</g>
</svg>
