<?xml version="1.0" standalone="no"?>
<!DOCTYPE svg PUBLIC "-//W3C//DTD SVG 20010904//EN"
 "http://www.w3.org/TR/2001/REC-SVG-20010904/DTD/svg10.dtd">
<svg version="1.0" xmlns="http://www.w3.org/2000/svg"
 width="1024.000000pt" height="768.000000pt" viewBox="0 0 1024.000000 768.000000"
 preserveAspectRatio="xMidYMid meet">

<g transform="translate(0.000000,768.000000) scale(0.100000,-0.100000)"
fill="#ff0000" stroke="none">
<path d="M5810 7299 c0 -175 -15 -253 -69 -356 -96 -183 -264 -362 -616 -653
-426 -352 -557 -518 -588 -740 -23 -170 57 -365 233 -568 109 -126 326 -324
451 -412 33 -23 33 -23 -12 30 -184 221 -305 421 -371 613 -29 83 -32 104 -32
212 -1 105 3 129 25 192 58 159 161 274 471 526 238 193 391 347 461 465 99
164 140 352 118 541 -11 87 -54 277 -66 290 -3 2 -5 -61 -5 -140z"/>
<path d="M6250 6301 c-559 -232 -876 -445 -977 -657 -35 -73 -38 -86 -37 -164
1 -109 29 -184 127 -338 216 -340 222 -352 222 -482 0 -112 -15 -152 -90 -245
-27 -33 -42 -55 -34 -49 8 6 50 38 95 72 100 75 210 181 253 245 41 60 71 144
71 197 0 61 -37 158 -88 232 -145 209 -170 248 -192 298 -36 84 -33 186 7 271
89 189 272 351 708 625 39 24 66 43 60 43 -5 0 -62 -22 -125 -48z"/>
<path d="M6711 4564 c-60 -13 -219 -80 -210 -88 2 -2 29 0 59 6 68 13 179 5
243 -17 63 -23 129 -88 150 -150 80 -233 -141 -562 -508 -757 -38 -21 -63 -38
-55 -38 35 0 250 63 329 97 136 58 219 112 307 198 127 125 183 260 171 408
-15 175 -141 314 -317 347 -66 13 -89 12 -169 -6z"/>
<path d="M4345 4484 c-396 -72 -625 -149 -666 -225 -72 -136 607 -248 1325
-219 428 18 735 62 1013 146 106 32 318 122 310 131 -2 2 -35 -3 -73 -11 -366
-76 -1374 -142 -1800 -117 -255 15 -384 47 -384 97 0 39 147 116 360 188 74
25 128 45 120 45 -8 0 -100 -16 -205 -35z"/>
<path d="M4275 3854 c-189 -107 -211 -187 -71 -253 118 -55 305 -85 626 -102
361 -18 864 15 1140 76 107 24 210 55 210 63 -1 4 -46 37 -102 75 l-102 68
-210 -35 c-433 -72 -841 -104 -1080 -86 -203 16 -295 47 -331 113 -20 37 -20
38 10 110 11 25 -2 21 -90 -29z"/>
<path d="M4404 3255 c-73 -35 -134 -92 -134 -123 0 -174 833 -283 1420 -186
144 24 361 92 360 113 -1 3 -57 40 -127 82 l-126 76 -71 -13 c-452 -87 -978
-90 -1173 -9 -52 22 -85 54 -77 77 3 10 4 18 2 18 -2 0 -35 -16 -74 -35z"/>
<path d="M4048 2883 c7 -3 16 -2 19 1 4 3 -2 6 -13 5 -11 0 -14 -3 -6 -6z"/>
<path d="M3895 2869 c-381 -53 -615 -122 -655 -191 -43 -77 92 -141 440 -208
636 -121 1860 -146 2506 -50 406 60 641 148 710 266 25 42 32 107 14 134 -8
12 -10 11 -10 -6 0 -27 -54 -81 -110 -108 -246 -124 -869 -196 -1689 -196
-846 0 -1473 76 -1507 183 -15 47 80 96 301 153 125 32 125 41 0 23z"/>
<path d="M7221 2644 c-3 -27 -102 -107 -181 -148 -383 -198 -1200 -317 -2078
-303 -504 8 -790 45 -1005 132 -16 7 -18 3 -15 -21 21 -180 1256 -281 2173
-178 476 53 819 152 991 285 80 61 133 157 121 219 -2 14 -5 20 -6 14z"/>
<path d="M2850 1740 l0 -80 175 0 175 0 0 -512 c0 -285 -5 -544 -10 -583 -13
-88 -47 -141 -113 -174 -84 -41 -262 -39 -389 5 l-38 13 0 -98 c0 -115 -15
-103 155 -122 308 -32 500 58 577 271 l23 65 3 648 3 647 -280 0 -281 0 0 -80z"/>
<path d="M7370 1461 c23 -6 25 -12 28 -74 4 -87 20 -87 24 0 3 62 5 68 28 74
16 5 1 7 -40 7 -41 0 -56 -2 -40 -7z"/>
<path d="M7500 1395 c0 -43 4 -75 10 -75 6 0 10 27 10 62 0 34 2 59 5 57 2 -3
11 -29 18 -59 8 -30 19 -56 25 -58 6 -2 16 16 22 40 21 82 29 88 29 21 1 -35
5 -63 11 -63 6 0 10 32 10 75 0 68 -2 75 -20 75 -15 0 -22 -11 -31 -45 -11
-44 -29 -70 -29 -43 0 7 -5 30 -11 51 -7 26 -15 37 -29 37 -18 0 -20 -7 -20
-75z"/>
<path d="M4118 1440 c-84 -8 -165 -22 -240 -41 l-38 -10 0 -99 c0 -55 2 -100
5 -100 2 0 28 9 57 19 122 45 179 55 328 55 91 1 161 -4 187 -12 87 -26 142
-103 143 -197 l0 -51 -167 -13 c-290 -22 -455 -68 -552 -156 -23 -21 -55 -66
-73 -104 -30 -61 -32 -73 -32 -171 -1 -92 3 -112 26 -161 65 -142 206 -229
368 -229 121 1 266 50 372 125 26 19 50 35 53 35 3 0 5 -29 5 -65 l0 -65 100
0 100 0 0 438 c0 454 -5 523 -42 595 -49 97 -156 172 -278 195 -82 16 -224 21
-322 12z m442 -774 l0 -174 -66 -42 c-107 -68 -184 -92 -289 -93 -137 -1 -207
29 -246 105 -23 46 -28 144 -9 193 24 62 101 118 200 145 55 15 251 37 343 39
l67 1 0 -174z"/>
<path d="M6720 1439 c-52 -5 -133 -17 -180 -27 l-85 -18 -3 -102 c-1 -56 -1
-102 0 -102 2 0 31 9 63 21 162 57 382 77 492 44 108 -32 163 -101 163 -202
l0 -53 -43 0 c-83 0 -359 -30 -425 -46 -83 -21 -196 -72 -240 -108 -85 -73
-128 -185 -120 -316 12 -208 180 -361 398 -360 121 1 268 50 370 125 26 19 50
35 54 35 3 0 6 -29 6 -65 l0 -65 100 0 100 0 0 438 c0 474 -6 534 -55 617 -51
88 -151 152 -275 175 -78 15 -222 19 -320 9z m450 -772 l0 -172 -51 -34 c-130
-85 -254 -119 -371 -102 -123 17 -176 59 -198 155 -28 126 39 231 177 275 74
24 256 48 376 50 l67 1 0 -173z"/>
<path d="M5020 1409 c0 -5 106 -274 236 -597 130 -323 239 -593 241 -600 4 -9
31 -12 105 -10 l100 3 129 320 c71 176 181 447 244 602 63 155 115 285 115
288 0 3 -46 4 -102 3 l-102 -3 -108 -280 c-214 -553 -260 -670 -267 -678 -4
-4 -93 211 -197 478 l-189 485 -102 0 c-66 0 -103 -4 -103 -11z"/>
</g>
</svg>
