<?xml version="1.0" standalone="no"?>
<!DOCTYPE svg PUBLIC "-//W3C//DTD SVG 20010904//EN"
 "http://www.w3.org/TR/2001/REC-SVG-20010904/DTD/svg10.dtd">
<svg version="1.0" xmlns="http://www.w3.org/2000/svg"
 width="512.000000pt" height="512.000000pt" viewBox="0 0 512.000000 512.000000"
 preserveAspectRatio="xMidYMid meet">

<g transform="translate(0.000000,512.000000) scale(0.100000,-0.100000)"
fill="#0CF3F7" stroke="none">
<path d="M2375 4549 c-632 -59 -1200 -420 -1535 -974 -200 -331 -305 -779
-272 -1162 43 -504 233 -917 581 -1264 484 -482 1137 -680 1811 -548 598 117
1131 532 1400 1092 166 344 229 716 184 1097 -70 601 -393 1115 -919 1460
-344 225 -820 339 -1250 299z m-194 -920 c108 -36 210 -96 320 -191 31 -26 61
-48 66 -48 5 0 20 12 34 26 35 37 155 126 220 162 120 68 251 91 331 57 130
-54 188 -277 143 -550 -8 -49 -15 -97 -15 -105 0 -10 25 -23 73 -39 160 -52
305 -141 377 -232 73 -93 76 -175 10 -278 -61 -94 -195 -183 -386 -255 l-71
-26 15 -68 c10 -41 16 -122 16 -207 1 -121 -2 -150 -23 -212 -88 -270 -350
-255 -686 40 l-40 35 -60 -53 c-185 -161 -384 -241 -513 -206 -60 17 -123 82
-152 157 -31 81 -39 263 -16 390 8 50 18 98 22 108 4 11 1 16 -12 16 -29 1
-196 73 -272 118 -203 121 -272 262 -196 401 57 105 200 204 389 271 49 17 90
32 92 33 1 2 -7 45 -17 97 -22 107 -26 270 -9 352 41 190 175 268 360 207z"/>
<path d="M3013 3539 c-88 -16 -225 -96 -321 -185 l-52 -49 56 -65 c30 -36 76
-93 100 -127 49 -67 51 -68 139 -78 33 -3 95 -13 138 -21 43 -9 84 -13 92 -11
20 8 39 137 39 262 1 216 -57 299 -191 274z"/>
<path d="M1992 3525 c-54 -39 -90 -180 -77 -310 5 -58 33 -216 38 -221 1 -1
44 6 95 16 52 10 125 21 163 25 l69 7 52 71 c29 39 74 96 100 127 26 30 48 60
48 65 0 26 -180 157 -276 202 -74 34 -177 43 -212 18z"/>
<path d="M2534 3198 c-11 -13 -42 -49 -68 -80 l-48 -58 141 0 142 0 -37 48
c-49 61 -96 112 -104 112 -4 0 -15 -10 -26 -22z"/>
<path d="M2398 2953 l-57 -4 -64 -102 c-35 -56 -85 -143 -112 -193 l-48 -90
47 -93 c26 -52 76 -139 110 -195 l64 -101 99 -6 c54 -4 156 -4 226 -1 l128 5
56 91 c67 108 163 288 163 305 0 15 -90 175 -162 287 l-58 91 -83 6 c-81 7
-200 7 -309 0z m259 -194 c173 -84 157 -339 -26 -404 -83 -29 -154 -12 -222
55 -87 83 -92 194 -14 296 54 71 174 96 262 53z"/>
<path d="M2080 2914 c-41 -8 -80 -16 -87 -19 -8 -2 -1 -33 22 -95 19 -50 37
-95 41 -101 3 -6 26 26 50 71 24 45 52 94 62 108 34 49 35 52 10 51 -13 0 -57
-7 -98 -15z"/>
<path d="M2986 2823 c35 -59 64 -111 64 -115 0 -43 70 100 82 167 2 16 -6 21
-49 31 -28 6 -76 15 -106 18 l-55 7 64 -108z"/>
<path d="M1789 2841 c-209 -78 -349 -189 -349 -276 0 -67 79 -156 197 -222 66
-36 204 -93 228 -93 7 0 21 23 30 53 10 28 36 97 58 152 l40 100 -23 60 c-12
33 -38 104 -58 158 -19 53 -37 97 -41 97 -3 -1 -40 -14 -82 -29z"/>
<path d="M3247 2862 c-3 -4 -10 -25 -17 -47 -7 -22 -32 -88 -56 -146 l-43
-106 38 -89 c21 -49 48 -119 61 -157 27 -77 16 -76 150 -19 234 98 339 217
285 321 -23 46 -113 120 -195 161 -90 45 -218 92 -223 82z"/>
<path d="M2016 2328 c-37 -101 -37 -117 -1 -118 6 0 49 -6 98 -14 48 -7 87
-11 87 -10 0 2 -20 34 -44 71 -24 37 -55 92 -70 121 -14 28 -28 52 -29 52 -2
0 -20 -46 -41 -102z"/>
<path d="M3027 2365 c-20 -38 -50 -94 -67 -122 l-32 -53 24 0 c13 0 62 7 110
16 l86 16 -25 66 c-13 37 -32 85 -42 107 l-18 40 -36 -70z"/>
<path d="M3128 2110 c-15 -4 -83 -16 -150 -25 -68 -9 -126 -19 -129 -23 -3 -4
-35 -45 -72 -92 -37 -47 -81 -103 -99 -124 l-32 -39 39 -35 c187 -164 368
-237 446 -179 26 20 50 63 65 119 27 103 8 400 -26 405 -8 1 -27 -2 -42 -7z"/>
<path d="M1946 2095 c-3 -8 -13 -65 -22 -127 -26 -181 -4 -309 63 -369 35 -30
39 -31 97 -25 97 10 252 92 365 193 l44 39 -50 56 c-28 31 -76 90 -107 131
l-57 74 -82 8 c-45 3 -116 13 -157 21 -92 17 -87 17 -94 -1z"/>
<path d="M2436 2036 c28 -40 119 -145 127 -145 11 -1 137 147 137 161 0 2 -63
3 -139 3 -136 1 -139 0 -125 -19z"/>
</g>
</svg>
